<svg id="visual" viewBox="0 0 960 540" width="960" height="540" xmlns="http://www.w3.org/2000/svg" xmlns:xlink="http://www.w3.org/1999/xlink" version="1.1"><g stroke-width="1" stroke-linejoin="bevel"><path d="M444 283L353 212L350 301Z" fill="#1d4e6b" stroke="#1d4e6b"></path><path d="M268 354L347 369L350 301Z" fill="#15384f" stroke="#15384f"></path><path d="M350 301L347 369L444 283Z" fill="#205a7a" stroke="#205a7a"></path><path d="M444 283L488 173L353 212Z" fill="#205a7a" stroke="#205a7a"></path><path d="M471 93L318 150L353 212Z" fill="#1d4e6b" stroke="#1d4e6b"></path><path d="M353 212L258 266L350 301Z" fill="#205a7a" stroke="#205a7a"></path><path d="M230 217L258 266L353 212Z" fill="#15384f" stroke="#15384f"></path><path d="M258 266L268 354L350 301Z" fill="#112e42" stroke="#112e42"></path><path d="M230 217L229 278L258 266Z" fill="#1d4e6b" stroke="#1d4e6b"></path><path d="M258 266L229 278L268 354Z" fill="#205a7a" stroke="#205a7a"></path><path d="M318 150L230 217L353 212Z" fill="#112e42" stroke="#112e42"></path><path d="M485 416L516 378L444 283Z" fill="#297ea6" stroke="#297ea6"></path><path d="M444 283L562 305L488 173Z" fill="#00101c" stroke="#00101c"></path><path d="M516 378L562 305L444 283Z" fill="#205a7a" stroke="#205a7a"></path><path d="M556 166L471 93L488 173Z" fill="#246688" stroke="#246688"></path><path d="M488 173L471 93L353 212Z" fill="#277297" stroke="#277297"></path><path d="M347 369L485 416L444 283Z" fill="#19435d" stroke="#19435d"></path><path d="M366 456L485 416L347 369Z" fill="#00101c" stroke="#00101c"></path><path d="M562 305L556 166L488 173Z" fill="#0c2435" stroke="#0c2435"></path><path d="M229 278L229 360L268 354Z" fill="#297ea6" stroke="#297ea6"></path><path d="M251 459L366 456L347 369Z" fill="#00101c" stroke="#00101c"></path><path d="M471 93L362 68L318 150Z" fill="#00101c" stroke="#00101c"></path><path d="M318 150L270 96L230 217Z" fill="#00101c" stroke="#00101c"></path><path d="M251 459L347 369L268 354Z" fill="#00101c" stroke="#00101c"></path><path d="M536 479L577 334L516 378Z" fill="#1d4e6b" stroke="#1d4e6b"></path><path d="M516 378L577 334L562 305Z" fill="#081a28" stroke="#081a28"></path><path d="M562 305L668 213L556 166Z" fill="#15384f" stroke="#15384f"></path><path d="M362 68L270 96L318 150Z" fill="#112e42" stroke="#112e42"></path><path d="M229 360L251 459L268 354Z" fill="#19435d" stroke="#19435d"></path><path d="M556 166L538 62L471 93Z" fill="#1d4e6b" stroke="#1d4e6b"></path><path d="M471 93L396 0L362 68Z" fill="#277297" stroke="#277297"></path><path d="M454 0L396 0L471 93Z" fill="#19435d" stroke="#19435d"></path><path d="M362 68L308 0L270 96Z" fill="#112e42" stroke="#112e42"></path><path d="M487 540L536 479L485 416Z" fill="#0c2435" stroke="#0c2435"></path><path d="M485 416L536 479L516 378Z" fill="#297ea6" stroke="#297ea6"></path><path d="M400 540L485 416L366 456Z" fill="#081a28" stroke="#081a28"></path><path d="M229 278L128 335L229 360Z" fill="#277297" stroke="#277297"></path><path d="M229 360L167 441L251 459Z" fill="#081a28" stroke="#081a28"></path><path d="M230 217L126 280L229 278Z" fill="#277297" stroke="#277297"></path><path d="M131 162L126 280L230 217Z" fill="#246688" stroke="#246688"></path><path d="M538 62L454 0L471 93Z" fill="#112e42" stroke="#112e42"></path><path d="M396 0L308 0L362 68Z" fill="#297ea6" stroke="#297ea6"></path><path d="M161 103L131 162L230 217Z" fill="#205a7a" stroke="#205a7a"></path><path d="M126 280L128 335L229 278Z" fill="#15384f" stroke="#15384f"></path><path d="M161 103L230 217L270 96Z" fill="#081a28" stroke="#081a28"></path><path d="M215 0L161 103L270 96Z" fill="#15384f" stroke="#15384f"></path><path d="M674 273L562 305L577 334Z" fill="#15384f" stroke="#15384f"></path><path d="M674 273L668 213L562 305Z" fill="#297ea6" stroke="#297ea6"></path><path d="M556 166L651 86L538 62Z" fill="#081a28" stroke="#081a28"></path><path d="M260 540L400 540L366 456Z" fill="#297ea6" stroke="#297ea6"></path><path d="M709 370L674 273L577 334Z" fill="#205a7a" stroke="#205a7a"></path><path d="M128 411L167 441L229 360Z" fill="#00101c" stroke="#00101c"></path><path d="M251 459L260 540L366 456Z" fill="#0c2435" stroke="#0c2435"></path><path d="M400 540L487 540L485 416Z" fill="#15384f" stroke="#15384f"></path><path d="M0 320L128 411L128 335Z" fill="#205a7a" stroke="#205a7a"></path><path d="M128 335L128 411L229 360Z" fill="#246688" stroke="#246688"></path><path d="M651 86L562 0L538 62Z" fill="#277297" stroke="#277297"></path><path d="M538 62L562 0L454 0Z" fill="#19435d" stroke="#19435d"></path><path d="M166 540L251 459L167 441Z" fill="#297ea6" stroke="#297ea6"></path><path d="M166 540L260 540L251 459Z" fill="#112e42" stroke="#112e42"></path><path d="M308 0L215 0L270 96Z" fill="#246688" stroke="#246688"></path><path d="M668 213L651 86L556 166Z" fill="#00101c" stroke="#00101c"></path><path d="M698 414L577 334L536 479Z" fill="#00101c" stroke="#00101c"></path><path d="M698 414L709 370L577 334Z" fill="#00101c" stroke="#00101c"></path><path d="M801 177L733 103L668 213Z" fill="#246688" stroke="#246688"></path><path d="M668 213L733 103L651 86Z" fill="#277297" stroke="#277297"></path><path d="M594 540L698 414L536 479Z" fill="#112e42" stroke="#112e42"></path><path d="M487 540L594 540L536 479Z" fill="#19435d" stroke="#19435d"></path><path d="M83 0L68 114L161 103Z" fill="#205a7a" stroke="#205a7a"></path><path d="M161 103L68 114L131 162Z" fill="#205a7a" stroke="#205a7a"></path><path d="M0 178L0 275L126 280Z" fill="#19435d" stroke="#19435d"></path><path d="M126 280L0 320L128 335Z" fill="#081a28" stroke="#081a28"></path><path d="M769 0L639 0L651 86Z" fill="#205a7a" stroke="#205a7a"></path><path d="M651 86L639 0L562 0Z" fill="#0c2435" stroke="#0c2435"></path><path d="M100 540L166 540L167 441Z" fill="#277297" stroke="#277297"></path><path d="M698 414L743 385L709 370Z" fill="#15384f" stroke="#15384f"></path><path d="M709 370L769 269L674 273Z" fill="#1d4e6b" stroke="#1d4e6b"></path><path d="M797 436L743 385L698 414Z" fill="#19435d" stroke="#19435d"></path><path d="M769 269L668 213L674 273Z" fill="#246688" stroke="#246688"></path><path d="M743 385L769 269L709 370Z" fill="#00101c" stroke="#00101c"></path><path d="M0 178L126 280L131 162Z" fill="#081a28" stroke="#081a28"></path><path d="M128 411L100 540L167 441Z" fill="#081a28" stroke="#081a28"></path><path d="M0 275L0 320L126 280Z" fill="#205a7a" stroke="#205a7a"></path><path d="M68 114L0 178L131 162Z" fill="#112e42" stroke="#112e42"></path><path d="M215 0L83 0L161 103Z" fill="#19435d" stroke="#19435d"></path><path d="M68 114L0 86L0 178Z" fill="#277297" stroke="#277297"></path><path d="M0 461L100 540L128 411Z" fill="#081a28" stroke="#081a28"></path><path d="M594 540L688 540L698 414Z" fill="#19435d" stroke="#19435d"></path><path d="M847 295L801 177L769 269Z" fill="#246688" stroke="#246688"></path><path d="M769 269L801 177L668 213Z" fill="#00101c" stroke="#00101c"></path><path d="M733 103L769 0L651 86Z" fill="#00101c" stroke="#00101c"></path><path d="M83 0L0 86L68 114Z" fill="#1d4e6b" stroke="#1d4e6b"></path><path d="M0 320L0 461L128 411Z" fill="#0c2435" stroke="#0c2435"></path><path d="M762 540L797 436L698 414Z" fill="#205a7a" stroke="#205a7a"></path><path d="M743 385L847 295L769 269Z" fill="#081a28" stroke="#081a28"></path><path d="M851 103L769 0L733 103Z" fill="#205a7a" stroke="#205a7a"></path><path d="M797 436L847 295L743 385Z" fill="#0c2435" stroke="#0c2435"></path><path d="M801 177L851 103L733 103Z" fill="#277297" stroke="#277297"></path><path d="M688 540L762 540L698 414Z" fill="#19435d" stroke="#19435d"></path><path d="M797 436L901 343L847 295Z" fill="#19435d" stroke="#19435d"></path><path d="M83 0L0 0L0 86Z" fill="#112e42" stroke="#112e42"></path><path d="M0 461L0 540L100 540Z" fill="#1d4e6b" stroke="#1d4e6b"></path><path d="M903 141L851 103L801 177Z" fill="#205a7a" stroke="#205a7a"></path><path d="M851 103L836 0L769 0Z" fill="#15384f" stroke="#15384f"></path><path d="M892 439L901 343L797 436Z" fill="#205a7a" stroke="#205a7a"></path><path d="M847 295L903 141L801 177Z" fill="#081a28" stroke="#081a28"></path><path d="M851 103L960 83L836 0Z" fill="#277297" stroke="#277297"></path><path d="M960 166L903 141L847 295Z" fill="#00101c" stroke="#00101c"></path><path d="M896 540L892 439L797 436Z" fill="#0c2435" stroke="#0c2435"></path><path d="M960 331L960 292L901 343Z" fill="#246688" stroke="#246688"></path><path d="M901 343L960 292L847 295Z" fill="#15384f" stroke="#15384f"></path><path d="M960 435L960 331L901 343Z" fill="#246688" stroke="#246688"></path><path d="M960 292L960 166L847 295Z" fill="#205a7a" stroke="#205a7a"></path><path d="M903 141L960 83L851 103Z" fill="#205a7a" stroke="#205a7a"></path><path d="M762 540L896 540L797 436Z" fill="#19435d" stroke="#19435d"></path><path d="M892 439L960 435L901 343Z" fill="#1d4e6b" stroke="#1d4e6b"></path><path d="M960 166L960 83L903 141Z" fill="#277297" stroke="#277297"></path><path d="M960 540L960 435L892 439Z" fill="#246688" stroke="#246688"></path><path d="M960 83L960 0L836 0Z" fill="#19435d" stroke="#19435d"></path><path d="M896 540L960 540L892 439Z" fill="#00101c" stroke="#00101c"></path></g></svg>